<svg width="20" height="20" fill="none" xmlns="http://www.w3.org/2000/svg"><path fill-rule="evenodd" clip-rule="evenodd" d="M2.963 0C2.296 0 2 .625 2 .903v18.194c0 .14.111.834.963.903h14.148c.432 0 .889-.451.889-.903V6.25h-5.704c-.74 0-.963-.694-.963-.903V0h-8.37zm9.704 0v5H18v-.278c0-.173-.074-.416-.222-.555L13.556.208C13.407.07 13.11 0 12.963 0h-.296zM6 17.639V8.125h3.444c1.111 0 4.519.66 4.519 4.688.074 4.062-3.185 4.826-4.444 4.826H6zm2.444-7.743v5.972H9.52c1.148 0 1.963-1.215 1.963-2.465v-.973c-.075-2.013-1.297-2.534-2.038-2.534h-1z" fill="#5BEA17"/></svg>
