<svg width="30" height="30" fill="none" xmlns="http://www.w3.org/2000/svg"><circle cx="15" cy="15" r="15" fill="#00C00D"/><path d="M11.464 15l-4.046-4.046c-.51-.51-.118-.982.04-1.14L9.892 7.38c.17-.17.62-.4 1.06.04L15 11.463l4.125-4.124c.183-.131.636-.307.982.039l2.514 2.514c.17.17.4.62-.04 1.06L18.536 15l4.047 4.046c.183.184.447.652.039 1.06l-2.514 2.515c-.17.17-.62.4-1.06-.04L15 18.536l-4.046 4.047c-.17.196-.637.463-1.14-.04L7.38 20.108c-.17-.17-.385-.636.118-1.14L11.464 15z" fill="#fff"/></svg>

