<svg viewBox="0 0 30 30" fill="none" xmlns="http://www.w3.org/2000/svg"><path fill-rule="evenodd" clip-rule="evenodd" d="M15 30c8.284 0 15-6.716 15-15 0-8.284-6.716-15-15-15C6.716 0 0 6.716 0 15c0 8.284 6.716 15 15 15zm8.647-17.055H11.86c1.504-1.416 4.602-4.338 4.963-4.7.508-.51.395-1.53 0-1.983l-.959-.962c-.564-.453-1.579-.343-1.917 0-2.65 2.68-8.076 8.166-8.572 8.664-.496.498-.504 1.529 0 2.039l8.515 8.607c.508.51 1.41.51 1.974.057.094-.076.418-.374.959-.963.541-.589.338-1.642-.113-2.095l-4.85-4.587h11.674c1.071 0 1.466-1.076 1.466-1.472v-1.133c0-.963-.902-1.472-1.353-1.472z" fill="#00C00D"/><path fill-rule="evenodd" clip-rule="evenodd" d="M11.86 12.945h11.787c.45 0 1.353.51 1.353 1.472v1.133c0 .396-.395 1.472-1.466 1.472H11.86l4.85 4.587c.451.453.654 1.506.113 2.095-.541.59-.865.887-.959.963-.564.453-1.466.453-1.974-.057l-8.515-8.607c-.504-.51-.496-1.54 0-2.039.496-.498 5.921-5.984 8.572-8.664.338-.343 1.353-.453 1.917 0l.959.962c.395.453.508 1.473 0 1.982-.36.363-3.459 3.285-4.963 4.7z" fill="#E5E5E5"/></svg>
