<svg viewBox="0 0 30 30" fill="none" xmlns="http://www.w3.org/2000/svg"><path fill-rule="evenodd" clip-rule="evenodd" d="M15 30c8.284 0 15-6.716 15-15 0-8.284-6.716-15-15-15C6.716 0 0 6.716 0 15c0 8.284 6.716 15 15 15zm6.176-7.017l2.81-16.87c.07-.52-.138-.687-.45-.937-.278-.222-.66-.235-1.007-.034-5.702 3.297-17.307 10.01-18.112 10.482-.694.451-.416 1.354.07 1.597l4.233 1.77c3.643-3.216 10.985-9.698 11.207-9.892.174-.14.486.104.382.277L10.87 20.9v3.193c0 .667.902 1.285 1.63.625L15 21.63c1.434.602 4.42 1.854 4.892 2.048.694.312 1.215-.313 1.284-.694z" fill="#00C00D"/><path d="M23.986 6.114l-2.81 16.869c-.07.381-.59 1.006-1.284.694-.472-.194-3.458-1.446-4.892-2.048l-2.498 3.09c-.73.659-1.631.04-1.631-.626V20.9l9.437-11.524c.105-.173-.208-.416-.381-.277-.222.194-7.564 6.675-11.208 9.892l-4.233-1.77c-.485-.243-.763-1.146-.07-1.597.806-.472 12.411-7.185 18.113-10.482.347-.201.729-.188 1.007.034.312.25.52.417.45.938z" fill="#E5E5E5"/></svg>
